<svg width="114" height="30" viewBox="0 0 114 30" fill="none" xmlns="http://www.w3.org/2000/svg">
<path d="M38.425 27H31.2432V3.72727H38.7432C41.0008 3.72727 42.9326 4.19318 44.5386 5.125C46.1447 6.04924 47.3758 7.37879 48.2318 9.11364C49.0879 10.8409 49.5159 12.9091 49.5159 15.3182C49.5159 17.7424 49.0841 19.8295 48.2205 21.5795C47.3568 23.322 46.0992 24.6629 44.4477 25.6023C42.7962 26.5341 40.7886 27 38.425 27ZM34.0614 24.5H38.2432C40.1674 24.5 41.7621 24.1288 43.0273 23.3864C44.2924 22.6439 45.2356 21.5871 45.8568 20.2159C46.478 18.8447 46.7886 17.2121 46.7886 15.3182C46.7886 13.4394 46.4818 11.822 45.8682 10.4659C45.2545 9.10227 44.3379 8.05682 43.1182 7.32954C41.8985 6.5947 40.3795 6.22727 38.5614 6.22727H34.0614V24.5ZM70.6795 15.3636C70.6795 17.8182 70.2364 19.9394 69.35 21.7273C68.4636 23.5152 67.2477 24.8939 65.7023 25.8636C64.1568 26.8333 62.3917 27.3182 60.4068 27.3182C58.422 27.3182 56.6568 26.8333 55.1114 25.8636C53.5659 24.8939 52.35 23.5152 51.4636 21.7273C50.5773 19.9394 50.1341 17.8182 50.1341 15.3636C50.1341 12.9091 50.5773 10.7879 51.4636 9C52.35 7.21212 53.5659 5.83333 55.1114 4.86364C56.6568 3.89394 58.422 3.40909 60.4068 3.40909C62.3917 3.40909 64.1568 3.89394 65.7023 4.86364C67.2477 5.83333 68.4636 7.21212 69.35 9C70.2364 10.7879 70.6795 12.9091 70.6795 15.3636ZM67.9523 15.3636C67.9523 13.3485 67.6152 11.6477 66.9409 10.2614C66.2742 8.875 65.3689 7.82576 64.225 7.11364C63.0886 6.40151 61.8159 6.04545 60.4068 6.04545C58.9977 6.04545 57.7212 6.40151 56.5773 7.11364C55.4409 7.82576 54.5356 8.875 53.8614 10.2614C53.1947 11.6477 52.8614 13.3485 52.8614 15.3636C52.8614 17.3788 53.1947 19.0795 53.8614 20.4659C54.5356 21.8523 55.4409 22.9015 56.5773 23.6136C57.7212 24.3258 58.9977 24.6818 60.4068 24.6818C61.8159 24.6818 63.0886 24.3258 64.225 23.6136C65.3689 22.9015 66.2742 21.8523 66.9409 20.4659C67.6152 19.0795 67.9523 17.3788 67.9523 15.3636ZM79.4 27H72.2182V3.72727H79.7182C81.9758 3.72727 83.9076 4.19318 85.5136 5.125C87.1197 6.04924 88.3508 7.37879 89.2068 9.11364C90.0629 10.8409 90.4909 12.9091 90.4909 15.3182C90.4909 17.7424 90.0591 19.8295 89.1955 21.5795C88.3318 23.322 87.0742 24.6629 85.4227 25.6023C83.7712 26.5341 81.7636 27 79.4 27ZM75.0364 24.5H79.2182C81.1424 24.5 82.7371 24.1288 84.0023 23.3864C85.2674 22.6439 86.2106 21.5871 86.8318 20.2159C87.453 18.8447 87.7636 17.2121 87.7636 15.3182C87.7636 13.4394 87.4568 11.822 86.8432 10.4659C86.2295 9.10227 85.3129 8.05682 84.0932 7.32954C82.8735 6.5947 81.3545 6.22727 79.5364 6.22727H75.0364V24.5ZM111.655 15.3636C111.655 17.8182 111.211 19.9394 110.325 21.7273C109.439 23.5152 108.223 24.8939 106.677 25.8636C105.132 26.8333 103.367 27.3182 101.382 27.3182C99.397 27.3182 97.6318 26.8333 96.0864 25.8636C94.5409 24.8939 93.325 23.5152 92.4386 21.7273C91.5523 19.9394 91.1091 17.8182 91.1091 15.3636C91.1091 12.9091 91.5523 10.7879 92.4386 9C93.325 7.21212 94.5409 5.83333 96.0864 4.86364C97.6318 3.89394 99.397 3.40909 101.382 3.40909C103.367 3.40909 105.132 3.89394 106.677 4.86364C108.223 5.83333 109.439 7.21212 110.325 9C111.211 10.7879 111.655 12.9091 111.655 15.3636ZM108.927 15.3636C108.927 13.3485 108.59 11.6477 107.916 10.2614C107.249 8.875 106.344 7.82576 105.2 7.11364C104.064 6.40151 102.791 6.04545 101.382 6.04545C99.9727 6.04545 98.6962 6.40151 97.5523 7.11364C96.4159 7.82576 95.5106 8.875 94.8364 10.2614C94.1697 11.6477 93.8364 13.3485 93.8364 15.3636C93.8364 17.3788 94.1697 19.0795 94.8364 20.4659C95.5106 21.8523 96.4159 22.9015 97.5523 23.6136C98.6962 24.3258 99.9727 24.6818 101.382 24.6818C102.791 24.6818 104.064 24.3258 105.2 23.6136C106.344 22.9015 107.249 21.8523 107.916 20.4659C108.59 19.0795 108.927 17.3788 108.927 15.3636Z" fill="#E3E3E3"/>
<path d="M12 30C8.65 30 5.8125 28.8375 3.4875 26.5125C1.1625 24.1875 0 21.35 0 18V10.5C0 7.45 1.2 4.9375 3.6 2.9625C6 0.9875 8.8 0 12 0C15.2 0 18 0.9875 20.4 2.9625C22.8 4.9375 24 7.45 24 10.5V30H12ZM12 27H15C14.525 26.375 14.1563 25.6812 13.8938 24.9187C13.6313 24.1562 13.5 23.35 13.5 22.5V20.925C13.25 20.95 13 20.9687 12.75 20.9812C12.5 20.9937 12.25 21 12 21C10.325 21 8.70625 20.7062 7.14375 20.1187C5.58125 19.5312 4.2 18.6375 3 17.4375V18C3 20.5 3.875 22.625 5.625 24.375C7.375 26.125 9.5 27 12 27ZM16.5 22.5C16.5 23.75 16.9375 24.8125 17.8125 25.6875C18.6875 26.5625 19.75 27 21 27V17.4375C20.35 18.0875 19.65 18.6437 18.9 19.1062C18.15 19.5687 17.35 19.95 16.5 20.25V22.5ZM10.5 12C10.5 10.35 9.9375 8.9625 8.8125 7.8375C7.6875 6.7125 6.325 6.1125 4.725 6.0375C4.175 6.6375 3.75 7.3125 3.45 8.0625C3.15 8.8125 3 9.625 3 10.5C3 12.725 3.90625 14.5312 5.71875 15.9187C7.53125 17.3062 9.625 18 12 18C14.375 18 16.4688 17.3062 18.2812 15.9187C20.0938 14.5312 21 12.725 21 10.5C21 9.625 20.85 8.80625 20.55 8.04375C20.25 7.28125 19.825 6.6 19.275 6C17.675 6.05 16.3125 6.65 15.1875 7.8C14.0625 8.95 13.5 10.35 13.5 12H10.5ZM6.75 12C6.325 12 5.96875 11.8562 5.68125 11.5687C5.39375 11.2812 5.25 10.925 5.25 10.5C5.25 10.075 5.39375 9.71875 5.68125 9.43125C5.96875 9.14375 6.325 9 6.75 9C7.175 9 7.53125 9.14375 7.81875 9.43125C8.10625 9.71875 8.25 10.075 8.25 10.5C8.25 10.925 8.10625 11.2812 7.81875 11.5687C7.53125 11.8562 7.175 12 6.75 12ZM17.25 12C16.825 12 16.4688 11.8562 16.1813 11.5687C15.8938 11.2812 15.75 10.925 15.75 10.5C15.75 10.075 15.8938 9.71875 16.1813 9.43125C16.4688 9.14375 16.825 9 17.25 9C17.675 9 18.0312 9.14375 18.3188 9.43125C18.6063 9.71875 18.75 10.075 18.75 10.5C18.75 10.925 18.6063 11.2812 18.3188 11.5687C18.0312 11.8562 17.675 12 17.25 12ZM7.875 3.825C8.725 4.175 9.5 4.6375 10.2 5.2125C10.9 5.7875 11.5 6.4375 12 7.1625C12.5 6.4375 13.0938 5.7875 13.7813 5.2125C14.4688 4.6375 15.2375 4.175 16.0875 3.825C15.4625 3.55 14.8063 3.34375 14.1188 3.20625C13.4313 3.06875 12.725 3 12 3C11.275 3 10.5688 3.06875 9.88125 3.20625C9.19375 3.34375 8.525 3.55 7.875 3.825Z" fill="#E3E3E3"/>
</svg>
