<svg width="24" height="30" viewBox="0 0 24 30" fill="none" xmlns="http://www.w3.org/2000/svg">
<path d="M12 30C8.65 30 5.8125 28.8375 3.4875 26.5125C1.1625 24.1875 0 21.35 0 18V10.5C0 7.45 1.2 4.9375 3.6 2.9625C6 0.9875 8.8 0 12 0C15.2 0 18 0.9875 20.4 2.9625C22.8 4.9375 24 7.45 24 10.5V30H12ZM12 27H15C14.525 26.375 14.1563 25.6812 13.8938 24.9187C13.6313 24.1562 13.5 23.35 13.5 22.5V20.925C13.25 20.95 13 20.9687 12.75 20.9812C12.5 20.9937 12.25 21 12 21C10.325 21 8.70625 20.7062 7.14375 20.1187C5.58125 19.5312 4.2 18.6375 3 17.4375V18C3 20.5 3.875 22.625 5.625 24.375C7.375 26.125 9.5 27 12 27ZM16.5 22.5C16.5 23.75 16.9375 24.8125 17.8125 25.6875C18.6875 26.5625 19.75 27 21 27V17.4375C20.35 18.0875 19.65 18.6437 18.9 19.1062C18.15 19.5687 17.35 19.95 16.5 20.25V22.5ZM10.5 12C10.5 10.35 9.9375 8.9625 8.8125 7.8375C7.6875 6.7125 6.325 6.1125 4.725 6.0375C4.175 6.6375 3.75 7.3125 3.45 8.0625C3.15 8.8125 3 9.625 3 10.5C3 12.725 3.90625 14.5312 5.71875 15.9187C7.53125 17.3062 9.625 18 12 18C14.375 18 16.4688 17.3062 18.2812 15.9187C20.0938 14.5312 21 12.725 21 10.5C21 9.625 20.85 8.80625 20.55 8.04375C20.25 7.28125 19.825 6.6 19.275 6C17.675 6.05 16.3125 6.65 15.1875 7.8C14.0625 8.95 13.5 10.35 13.5 12H10.5ZM6.75 12C6.325 12 5.96875 11.8562 5.68125 11.5687C5.39375 11.2812 5.25 10.925 5.25 10.5C5.25 10.075 5.39375 9.71875 5.68125 9.43125C5.96875 9.14375 6.325 9 6.75 9C7.175 9 7.53125 9.14375 7.81875 9.43125C8.10625 9.71875 8.25 10.075 8.25 10.5C8.25 10.925 8.10625 11.2812 7.81875 11.5687C7.53125 11.8562 7.175 12 6.75 12ZM17.25 12C16.825 12 16.4688 11.8562 16.1813 11.5687C15.8938 11.2812 15.75 10.925 15.75 10.5C15.75 10.075 15.8938 9.71875 16.1813 9.43125C16.4688 9.14375 16.825 9 17.25 9C17.675 9 18.0312 9.14375 18.3188 9.43125C18.6063 9.71875 18.75 10.075 18.75 10.5C18.75 10.925 18.6063 11.2812 18.3188 11.5687C18.0312 11.8562 17.675 12 17.25 12ZM7.875 3.825C8.725 4.175 9.5 4.6375 10.2 5.2125C10.9 5.7875 11.5 6.4375 12 7.1625C12.5 6.4375 13.0938 5.7875 13.7813 5.2125C14.4688 4.6375 15.2375 4.175 16.0875 3.825C15.4625 3.55 14.8063 3.34375 14.1188 3.20625C13.4313 3.06875 12.725 3 12 3C11.275 3 10.5688 3.06875 9.88125 3.20625C9.19375 3.34375 8.525 3.55 7.875 3.825Z" fill="#E3E3E3"/>
</svg>
